<svg width="124" height="124" viewBox="0 0 124 124" fill="none" xmlns="http://www.w3.org/2000/svg">
<path d="M123.103 62.2C123.103 96.1941 95.5458 123.752 61.5517 123.752C27.5576 123.752 0 96.1941 0 62.2C0 28.2059 27.5576 0.648285 61.5517 0.648285C95.5458 0.648285 123.103 28.2059 123.103 62.2Z" fill="#4B5C7B"/>
<path fill-rule="evenodd" clip-rule="evenodd" d="M48.3093 46.8661V81.9668H74.6348V46.8661H48.3093ZM47.8474 44.5569C46.8271 44.5569 46 45.384 46 46.4043V82.4287C46 83.449 46.8271 84.2761 47.8474 84.2761H75.0966C76.1169 84.2761 76.944 83.449 76.944 82.4287V46.4043C76.944 45.384 76.1169 44.5569 75.0966 44.5569H47.8474Z" fill="white"/>
<path d="M53.3896 42.7095C53.3896 41.6892 54.2167 40.8621 55.237 40.8621H68.1689C69.1892 40.8621 70.0163 41.6892 70.0163 42.7095V48.7135C70.0163 49.7338 69.1892 50.5609 68.1689 50.5609H55.237C54.2167 50.5609 53.3896 49.7338 53.3896 48.7135V42.7095Z" fill="white"/>
<path fill-rule="evenodd" clip-rule="evenodd" d="M55.6989 43.1713V48.2517H67.707V43.1713H55.6989ZM55.237 40.8621C54.2167 40.8621 53.3896 41.6892 53.3896 42.7095V48.7135C53.3896 49.7338 54.2167 50.5609 55.237 50.5609H68.1689C69.1892 50.5609 70.0163 49.7338 70.0163 48.7135V42.7095C70.0163 41.6892 69.1892 40.8621 68.1689 40.8621H55.237Z" fill="white"/>
<path fill-rule="evenodd" clip-rule="evenodd" d="M72.3255 58.4124H59.3937V56.565H72.3255V58.4124Z" fill="white"/>
<path fill-rule="evenodd" clip-rule="evenodd" d="M72.3255 75.0391H59.3937V73.1917H72.3255V75.0391Z" fill="white"/>
<path fill-rule="evenodd" clip-rule="evenodd" d="M72.3255 66.7257H59.3937V64.8783H72.3255V66.7257Z" fill="white"/>
<path fill-rule="evenodd" clip-rule="evenodd" d="M57.8032 55.2978L53.8758 60.1633L50.5102 57.5226L51.6506 56.0692L53.5827 57.5852L56.3657 54.1374L57.8032 55.2978Z" fill="white"/>
<path fill-rule="evenodd" clip-rule="evenodd" d="M57.8032 72.8481L53.8758 77.7137L50.5102 75.073L51.6506 73.6196L53.5827 75.1355L56.3657 71.6878L57.8032 72.8481Z" fill="white"/>
<path fill-rule="evenodd" clip-rule="evenodd" d="M57.8032 64.073L53.8758 68.9385L50.5102 66.2978L51.6506 64.8444L53.5827 66.3604L56.3657 62.9126L57.8032 64.073Z" fill="white"/>
</svg>
