<svg width="124" height="125" viewBox="0 0 124 125" fill="none" xmlns="http://www.w3.org/2000/svg">
<path d="M123.103 62.4828C123.103 96.4768 95.5458 124.034 61.5517 124.034C27.5576 124.034 0 96.4768 0 62.4828C0 28.4887 27.5576 0.93103 61.5517 0.93103C95.5458 0.93103 123.103 28.4887 123.103 62.4828Z" fill="#4B5C7B"/>
<path d="M26.4 65.34H33.24L35.22 70.38L37.04 69.68L30.86 54.02H28.82L22.6 69.68L24.4 70.38L26.4 65.34ZM29.86 56.32L32.52 63.54H27.14L29.86 56.32ZM42.1328 53.44H40.2328V70H42.1328V53.44ZM55.1144 68.28H48.2544L55.1144 59.24V57.78H45.9344V59.52H52.7944L45.9344 68.56V70H55.1144V68.28ZM60.7125 65.34H67.5525L69.5325 70.38L71.3525 69.68L65.1725 54.02H63.1325L56.9125 69.68L58.7125 70.38L60.7125 65.34ZM64.1725 56.32L66.8325 63.54H61.4525L64.1725 56.32ZM79.2453 57.82C77.9853 57.82 76.7453 58.66 75.8453 59.58L75.7453 58H73.9453V74.5H75.8453V68.76C76.7653 69.88 77.9453 70.44 79.2453 70.44C82.7653 70.44 84.2853 67.54 84.2853 64.14C84.2853 60.72 82.7653 57.82 79.2453 57.82ZM79.1453 68.74C76.7053 68.74 75.8853 66.52 75.8853 64.14C75.8853 61.66 76.7053 59.54 79.1453 59.54C81.5653 59.54 82.4053 61.66 82.4053 64.14C82.4053 66.62 81.5653 68.74 79.1453 68.74ZM93.3781 57.82C92.1181 57.82 90.8781 58.66 89.9781 59.58L89.8781 58H88.0781V74.5H89.9781V68.76C90.8981 69.88 92.0781 70.44 93.3781 70.44C96.8981 70.44 98.4181 67.54 98.4181 64.14C98.4181 60.72 96.8981 57.82 93.3781 57.82ZM93.2781 68.74C90.8381 68.74 90.0181 66.52 90.0181 64.14C90.0181 61.66 90.8381 59.54 93.2781 59.54C95.6981 59.54 96.5381 61.66 96.5381 64.14C96.5381 66.62 95.6981 68.74 93.2781 68.74Z" fill="white"/>
</svg>
